<svg width="37" height="36" viewBox="0 0 37 36" fill="none" xmlns="http://www.w3.org/2000/svg">
<g clip-path="url(#clip0_3000_3343)">
<path d="M18.8364 18.0001V11.2501" stroke="#6B5BD4" stroke-width="2" stroke-linecap="round" stroke-linejoin="round"/>
<path d="M18.8364 24.0001L18.8364 24.0001" stroke="#6B5BD4" stroke-width="2" stroke-linecap="round" stroke-linejoin="round"/>
<path d="M5.36182 21.5716V14.4286C5.36182 12.0256 6.63738 9.8041 8.70942 8.5951L15.4466 4.6666C17.5411 3.4456 20.1296 3.4456 22.2241 4.6666L28.9612 8.5951C31.0348 9.8041 32.3103 12.0256 32.3103 14.4286V21.5716C32.3103 23.9746 31.0348 26.1961 28.9627 27.4051L22.2256 31.3336C20.1311 32.5546 17.5425 32.5546 15.448 31.3336L8.71092 27.4051C6.63738 26.1961 5.36182 23.9746 5.36182 21.5716V21.5716Z" stroke="#6B5BD4" stroke-width="2" stroke-linecap="round" stroke-linejoin="round"/>
</g>
<defs>
<clipPath id="clip0_3000_3343">
<rect width="35.9314" height="36" fill="white" transform="translate(0.870605 0.00012207)"/>
</clipPath>
</defs>
</svg>
